<svg width="16" height="16" viewBox="0 0 16 16" fill="none" xmlns="http://www.w3.org/2000/svg">
<path d="M10.476 1.831L1.242 11.084C0.995 11.331 0.862 11.635 0.862 11.977L0.805 14.371C0.805 14.713 0.919 15.055 1.166 15.302C1.413 15.549 1.736 15.701 2.078 15.701L4.586 15.758H4.605C4.947 15.758 5.289 15.625 5.536 15.378L14.77 6.144C15.948 4.966 15.948 3.028 14.77 1.85C13.592 0.652999 11.673 0.652999 10.476 1.831ZM2.325 14.2L2.363 12.471L4.13 14.238L2.325 14.2ZM5.403 13.364L3.256 11.217L10.248 4.225L12.395 6.372L5.403 13.364ZM13.706 5.061L13.478 5.289L11.331 3.142L11.559 2.914C12.148 2.325 13.117 2.325 13.706 2.914C14.295 3.503 14.295 4.472 13.706 5.061Z" fill="#1C1C1C"/>
</svg>
