<svg width="19" height="19" viewBox="0 0 19 19" fill="none" xmlns="http://www.w3.org/2000/svg">
<path d="M0.919998 6.38001C0.919998 6.79375 1.08436 7.19054 1.37691 7.4831C1.66947 7.77566 2.06626 7.94001 2.48 7.94001V15.74C2.48 16.5675 2.80871 17.3611 3.39383 17.9462C3.97894 18.5313 4.77252 18.86 5.6 18.86H13.4C14.2275 18.86 15.0211 18.5313 15.6062 17.9462C16.1913 17.3611 16.52 16.5675 16.52 15.74V7.94001C16.9337 7.94001 17.3305 7.77566 17.6231 7.4831C17.9156 7.19054 18.08 6.79375 18.08 6.38001V4.82001C18.08 4.40628 17.9156 4.00949 17.6231 3.71693C17.3305 3.42437 16.9337 3.26001 16.52 3.26001H13.4V1.70001C13.4 1.28628 13.2356 0.889485 12.9431 0.596928C12.6505 0.304372 12.2537 0.140015 11.84 0.140015H7.16C6.74626 0.140015 6.34947 0.304372 6.05691 0.596928C5.76435 0.889485 5.6 1.28628 5.6 1.70001V3.26001H2.48C2.06626 3.26001 1.66947 3.42437 1.37691 3.71693C1.08436 4.00949 0.919998 4.40628 0.919998 4.82001V6.38001ZM14.96 15.74C14.96 16.1538 14.7956 16.5505 14.5031 16.8431C14.2105 17.1357 13.8137 17.3 13.4 17.3H5.6C5.18626 17.3 4.78947 17.1357 4.49691 16.8431C4.20435 16.5505 4.04 16.1538 4.04 15.74V7.94001H14.96V15.74ZM7.16 1.70001H11.84V3.26001H7.16V1.70001ZM2.48 4.82001H16.52V6.38001H2.48V4.82001Z" fill="#1C1C1C"/>
</svg>
